<svg width="760" height="885" version="1.1" xmlns="http://www.w3.org/2000/svg" desc="Created with imagetracer.js version 1.2.6" ><path fill="rgb(133,245,204)" stroke="rgb(133,245,204)" stroke-width="1" opacity="0.9372549019607843" d="M 0 0 L 507.5 0 L 760 252.5 L 760 633 L 507 633 L 507 885 L 253 885 L 253 633 L 0 633 L 0 379 L 505 378.5 L 379.5 254 L 0 254 L 0 0 Z M 7 6 L 7 247 L 381 247 L 385 249 L 511 376 Q 512 382 510 384 L 508 385 L 7 385 L 7 626 L 254 626 L 257 627 L 259 630 L 260 634 L 260 879 L 500 879 L 500 634 L 501 630 L 507 626 L 753 626 L 753 255 L 504 6 L 7 6 Z " /><path fill="rgb(9,84,73)" stroke="rgb(9,84,73)" stroke-width="1" opacity="1" d="M 7 6 L 503.5 6 L 753 254.5 L 753 626 L 506.5 626 L 501 629.5 L 500 633.5 L 500 879 L 260 879 L 260 633.5 L 259 629.5 L 256.5 627 L 253.5 626 L 7 626 L 7 385 L 507.5 385 L 510 384 Q 511.8 381.6 511 375.5 L 384.5 249 L 380.5 247 L 7 247 L 7 6 Z " /><path fill="rgb(0,0,0)" stroke="rgb(0,0,0)" stroke-width="1" opacity="0" d="M 508.5 0 L 760 0 L 760 251.5 L 508.5 0 Z " /><path fill="rgb(0,0,0)" stroke="rgb(0,0,0)" stroke-width="1" opacity="0" d="M 0 254 L 379.5 254 L 505 378.5 L 0 379 L 0 254 Z " /><path fill="rgb(0,0,0)" stroke="rgb(0,0,0)" stroke-width="1" opacity="0" d="M 0 633 L 253 633 L 253 885 L 0 885 L 0 633 Z " /><path fill="rgb(0,0,0)" stroke="rgb(0,0,0)" stroke-width="1" opacity="0" d="M 507 633 L 760 633 L 760 885 L 507 885 L 507 633 Z " /></svg>